<svg height='100px' width='100px'  fill="#000000" xmlns="http://www.w3.org/2000/svg" xmlns:xlink="http://www.w3.org/1999/xlink" version="1.1" x="0px" y="0px" viewBox="0 0 50 50" enable-background="new 0 0 50 50" xml:space="preserve"><g><path fill-rule="evenodd" clip-rule="evenodd" d="M29.756,33.027h3.72v4.823h-3.72V33.027z M29.756,26.107h3.72v4.168h-3.72V26.107   z M20.242,26.107v4.168h-3.72v-4.168H20.242z M16.522,33.027h3.72v4.823h-3.72V33.027z M27.093,26.107v4.167H26.12h-2.241h-0.972   v-4.167h0.972h2.241H27.093z M37.8,23.414H12.199v15.098v4.192h10.26v-8.986h0.801h3.48h0.801v8.986H37.8V23.414z M29.826,10.215   l9.323,9.323v2.528H50l-3.722-11.85H29.826z M10.849,19.537l9.323-9.323H3.721L0,22.065h10.849V19.537z M5.325,32.151h3.255v5.768   H5.325V32.151z M5.325,25.547h3.256v3.255H5.325V25.547z M10.849,23.414H2.885V39.92H0.558v2.784h10.291V23.414z M41.418,32.151   h3.255v5.768h-3.255V32.151z M41.418,25.547h3.255v3.255h-3.255V25.547z M39.149,23.414v19.289h10.29V39.92h-2.326V23.414H39.149z    M12.199,22.065H37.8v-1.969l-12.8-12.8l-12.801,12.8V22.065z"></path></g></svg>