<?xml version="1.0" encoding="utf-8"?>
<svg viewBox="0 0 130 130" style="enable-background:new 0 0 512 512;" xmlns="http://www.w3.org/2000/svg">
  <polygon style="fill: rgb(212, 210, 248);" points="31.874 71.393 24.504 83.804 104.926 83.804 97.554 71.393"/>
  <polygon style="fill: rgb(211, 199, 246);" points="42.183 54.038 35.306 65.617 94.124 65.617 87.246 54.038"/>
  <polygon style="fill: rgb(215, 181, 246);" points="73.506 30.905 64.715 16.102 55.922 30.905"/>
  <polygon style="fill: rgb(213, 193, 246);" points="52.491 36.682 45.615 48.261 83.815 48.261 76.938 36.682"/>
  <polygon style="opacity: 0.1;" points="63.003 30.851 64.762 16.048 55.97 30.851"/>
  <polygon style="opacity: 0.1;" points="62.271 36.682 52.491 36.682 45.615 48.261 60.895 48.261"/>
  <polygon style="opacity: 0.1;" points="60.25 54.03 42.223 54.03 35.346 65.61 58.875 65.61"/>
  <polygon style="opacity: 0.1;" points="58.105 71.411 31.831 71.411 24.46 83.821 56.63 83.821"/>
  <polygon style="fill: rgb(210, 214, 248);" points="22.245 89.99 12.713 106.039 116.706 106.039 107.174 89.99"/>
  <polygon style="opacity: 0.1;" points="56.253 90.007 22.246 90.007 12.706 106.07 54.345 106.07"/>
</svg>