<?xml version="1.0" encoding="utf-8"?>
<svg viewBox="0 0 700 700" style="enable-background:new 0 0 512 512;" xmlns="http://www.w3.org/2000/svg">
  <polygon id="polygon-1" style="fill:#D4D2F8;" points="146.68 407.688 99.751 486.731 611.751 486.731 564.822 407.688"/>
  <polygon id="polygon-2" style="fill:#D3C7F6;" points="212.306 297.152 168.522 370.899 542.98 370.899 499.195 297.152"/>
  <polygon id="polygon-3" style="fill:#D7B5F6;" points="411.725 149.826 355.751 55.547 299.777 149.826"/>
  <polygon id="polygon-4" style="fill:#D5C1F6;" points="277.934 186.617 234.149 260.362 477.352 260.362 433.568 186.617"/>
  <polygon id="polygon-5" style="opacity:0.1;enable-background:new    ;" points="344.858 149.483 356.051 55.204 300.077 149.483"/>
  <polygon id="polygon-6" style="opacity:0.1;enable-background:new    ;" points="340.191 186.617 277.934 186.617 234.149 260.362 331.437 260.362"/>
  <polygon id="polygon-7" style="opacity:0.1;enable-background:new    ;" points="327.325 297.106 212.561 297.106 168.777 370.853 318.57 370.853"/>
  <polygon id="polygon-8" style="opacity:0.1;enable-background:new    ;" points="313.666 407.799 146.398 407.799 99.469 486.842 304.282 486.842"/>
  <g/>
  <g/>
  <g/>
  <g/>
  <g/>
  <g/>
  <g/>
  <g/>
  <g/>
  <g/>
  <g/>
  <g/>
  <g/>
  <g/>
  <g/>
  <polygon style="fill: rgb(210, 214, 248);" points="85.37 526.13 24.687 628.34 686.746 628.34 626.063 526.13"/>
  <polygon style="opacity: 0.1;" points="301.875 526.236 85.383 526.236 24.643 628.54 289.73 628.54"/>
</svg>