<?xml version="1.0" encoding="utf-8"?>
<svg viewBox="0 0 400 400" style="enable-background:new 0 0 512 512;" xmlns="http://www.w3.org/2000/svg">
  <polygon style="fill: rgb(212, 210, 248);" points="105.013 220.463 83.605 256.522 317.173 256.522 295.764 220.463"/>
  <polygon style="fill: rgb(211, 199, 246);" points="134.951 170.039 114.978 203.682 285.8 203.682 265.826 170.039"/>
  <polygon style="fill: rgb(215, 181, 246);" points="225.923 102.83 200.389 59.822 174.855 102.83"/>
  <polygon style="fill: rgb(213, 193, 246);" points="164.889 119.615 144.916 153.256 255.861 153.256 235.888 119.615"/>
  <polygon style="opacity: 0.1;" points="195.419 102.673 200.526 59.665 174.991 102.673"/>
  <polygon style="opacity: 0.1;" points="193.291 119.615 164.889 119.615 144.916 153.256 189.297 153.256"/>
  <polygon style="opacity: 0.1;" points="187.421 170.018 135.068 170.018 115.094 203.66 183.428 203.66"/>
  <polygon style="opacity: 0.1;" points="181.19 220.514 104.885 220.514 83.477 256.572 176.909 256.572"/>
  <g style="" transform="matrix(0.456186, 0, 0, 0.456186, 188.199722, 187.630676)"/>
  <g style="" transform="matrix(0.456186, 0, 0, 0.456186, 188.199722, 187.630676)"/>
  <g style="" transform="matrix(0.456186, 0, 0, 0.456186, 188.199722, 187.630676)"/>
  <g style="" transform="matrix(0.456186, 0, 0, 0.456186, 188.199722, 187.630676)"/>
  <g style="" transform="matrix(0.456186, 0, 0, 0.456186, 188.199722, 187.630676)"/>
  <g style="" transform="matrix(0.456186, 0, 0, 0.456186, 188.199722, 187.630676)"/>
  <g style="" transform="matrix(0.456186, 0, 0, 0.456186, 188.199722, 187.630676)"/>
  <g style="" transform="matrix(0.456186, 0, 0, 0.456186, 188.199722, 187.630676)"/>
  <g style="" transform="matrix(0.456186, 0, 0, 0.456186, 188.199722, 187.630676)"/>
  <g style="" transform="matrix(0.456186, 0, 0, 0.456186, 188.199722, 187.630676)"/>
  <g style="" transform="matrix(0.456186, 0, 0, 0.456186, 188.199722, 187.630676)"/>
  <g style="" transform="matrix(0.456186, 0, 0, 0.456186, 188.199722, 187.630676)"/>
  <g style="" transform="matrix(0.456186, 0, 0, 0.456186, 188.199722, 187.630676)"/>
  <g style="" transform="matrix(0.456186, 0, 0, 0.456186, 188.199722, 187.630676)"/>
  <g style="" transform="matrix(0.456186, 0, 0, 0.456186, 188.199722, 187.630676)"/>
  <polygon style="fill: rgb(210, 214, 248);" points="77.045 274.494 49.362 321.122 351.384 321.122 323.701 274.494"/>
  <polygon style="opacity: 0.1;" points="175.812 274.544 77.051 274.544 49.342 321.213 170.271 321.213"/>
</svg>